<svg width="99" height="102" viewBox="0 0 99 102" fill="none" xmlns="http://www.w3.org/2000/svg">
<path opacity="0.1" d="M48.912 74.6104L50.6641 73.6459L48.8973 70.4362L47.1531 73.6583L48.912 74.6104ZM34.28 101.642L33.2541 103.359L35.0455 104.43L36.0389 102.594L34.28 101.642ZM13.944 89.4904L12.2221 88.4729L11.2097 90.1863L12.9181 91.2072L13.944 89.4904ZM30.064 62.2104L31.7859 63.2278L33.6036 60.1516L30.0309 60.2106L30.064 62.2104ZM0.0559969 62.7064L-1.944 62.7064L-1.944 64.7397L0.0890473 64.7061L0.0559969 62.7064ZM0.0559979 39.3944L0.0723859 37.3944L-1.944 37.3779L-1.944 39.3944L0.0559979 39.3944ZM30.312 39.6424L30.2956 41.6423L33.8619 41.6715L32.027 38.6134L30.312 39.6424ZM13.944 12.3624L12.9337 10.6363L11.1888 11.6577L12.229 13.3914L13.944 12.3624ZM34.28 0.45837L36.0389 -0.493677L35.0544 -2.31241L33.2696 -1.26766L34.28 0.45837ZM48.912 27.4904L47.1531 28.4424L48.8973 31.6646L50.6641 28.4548L48.912 27.4904ZM63.792 0.458371L64.8024 -1.26766L63.0302 -2.30504L62.0399 -0.506083L63.792 0.458371ZM84.128 12.3624L85.843 13.3914L86.8832 11.6577L85.1384 10.6363L84.128 12.3624ZM67.76 39.6424L66.045 38.6134L64.2101 41.6715L67.7764 41.6423L67.76 39.6424ZM98.016 39.3944L100.016 39.3944L100.016 37.3779L97.9996 37.3944L98.016 39.3944ZM98.016 62.7064L97.9832 64.7061L100.016 64.7394L100.016 62.7064L98.016 62.7064ZM67.76 62.2104L67.7928 60.2106L64.1924 60.1516L66.045 63.2394L67.76 62.2104ZM84.128 89.4904L85.1539 91.2072L86.8738 90.1794L85.843 88.4614L84.128 89.4904ZM63.792 101.642L62.0399 102.607L63.0392 104.422L64.8179 103.359L63.792 101.642ZM47.1531 73.6583L32.5211 100.69L36.0389 102.594L50.6709 75.5624L47.1531 73.6583ZM35.3059 99.9255L14.9699 87.7735L12.9181 91.2072L33.2541 103.359L35.3059 99.9255ZM15.6659 90.5078L31.7859 63.2278L28.3422 61.1929L12.2221 88.4729L15.6659 90.5078ZM30.0309 60.2106L0.0229464 60.7066L0.0890473 64.7061L30.0971 64.2101L30.0309 60.2106ZM2.056 62.7064L2.056 39.3944L-1.944 39.3944L-1.944 62.7064L2.056 62.7064ZM0.0396099 41.3943L30.2956 41.6423L30.3284 37.6424L0.0723859 37.3944L0.0396099 41.3943ZM32.027 38.6134L15.659 11.3334L12.229 13.3914L28.597 40.6714L32.027 38.6134ZM14.9544 14.0884L35.2904 2.1844L33.2696 -1.26766L12.9337 10.6363L14.9544 14.0884ZM32.5211 1.41042L47.1531 28.4424L50.6709 26.5383L36.0389 -0.493677L32.5211 1.41042ZM50.6641 28.4548L65.5441 1.42283L62.0399 -0.506083L47.1599 26.5259L50.6641 28.4548ZM62.7816 2.1844L83.1177 14.0884L85.1384 10.6363L64.8024 -1.26766L62.7816 2.1844ZM82.413 11.3334L66.045 38.6134L69.475 40.6714L85.843 13.3914L82.413 11.3334ZM67.7764 41.6423L98.0324 41.3943L97.9996 37.3944L67.7436 37.6424L67.7764 41.6423ZM96.016 39.3944L96.016 62.7064L100.016 62.7064L100.016 39.3944L96.016 39.3944ZM98.0488 60.7066L67.7928 60.2106L67.7272 64.2101L97.9832 64.7061L98.0488 60.7066ZM66.045 63.2394L82.413 90.5194L85.843 88.4614L69.475 61.1814L66.045 63.2394ZM83.1021 87.7735L62.7661 99.9255L64.8179 103.359L85.1539 91.2072L83.1021 87.7735ZM65.5441 100.678L50.6641 73.6459L47.1599 75.5748L62.0399 102.607L65.5441 100.678Z" fill="white"/>
</svg>
